<svg width="1080" height="1080" viewBox="0 0 1080 1080" xmlns="http://www.w3.org/2000/svg">
<defs><linearGradient id="bg" x1="0" y1="0" x2="1" y2="1"><stop offset="0" stop-color="#020617"/><stop offset="0.45" stop-color="#111827"/><stop offset="1" stop-color="#4f46e5"/></linearGradient><linearGradient id="rightFade" x1="0" y1="0" x2="1" y2="0"><stop offset="0" stop-color="#020617" stop-opacity="0.72"/><stop offset="1" stop-color="#020617" stop-opacity="0.05"/></linearGradient><style>text{font-family:'PingFang HK','Noto Sans HK','Microsoft JhengHei','Hiragino Sans GB',Arial,sans-serif}</style></defs>
<rect width="1080" height="1080" fill="url(#bg)"/><circle cx="1020" cy="36" r="270" fill="#818cf8" opacity="0.12"/><circle cx="100" cy="1010" r="260" fill="#34d399" opacity="0.12"/><g transform="translate(590 160)"><rect x="0" y="0" width="250" height="330" rx="26" fill="#fff" opacity="0.1" stroke="#34d399"/><rect x="38" y="76" width="150" height="16" rx="8" fill="#34d399"/><rect x="38" y="126" width="176" height="12" rx="6" fill="#fff" opacity="0.35"/><rect x="54" y="58" width="250" height="330" rx="26" fill="#fff" opacity="0.14" stroke="#34d399"/><rect x="92" y="134" width="150" height="16" rx="8" fill="#34d399"/><rect x="92" y="184" width="176" height="12" rx="6" fill="#fff" opacity="0.35"/><rect x="108" y="116" width="250" height="330" rx="26" fill="#fff" opacity="0.18" stroke="#34d399"/><rect x="146" y="192" width="150" height="16" rx="8" fill="#34d399"/><rect x="146" y="242" width="176" height="12" rx="6" fill="#fff" opacity="0.35"/></g>
<g transform="translate(80 78)"><rect width="250" height="58" rx="29" fill="#fff" opacity="0.12" stroke="#c7d2fe" stroke-opacity="0.32"/><circle cx="30" cy="29" r="15" fill="#4f46e5"/><path d="M23 29h14M30 22v14" stroke="#fff" stroke-width="4" stroke-linecap="round"/><text x="58" y="38" font-size="25" font-weight="820" fill="#fff">EziTeach AI</text></g>
<g transform="translate(80 238)"><text y="0" font-size="30" font-weight="800" fill="#34d399">文件整理</text><text y="94" font-size="60" font-weight="870" fill="#fff">掃描 PDF，</text><text y="164" font-size="60" font-weight="870" fill="#fff">教材唔再散晒</text><rect y="202" width="300" height="8" rx="4" fill="#34d399"/><text x="0" y="285" font-size="39" font-weight="540" fill="#e0e7ff">講義・試題・行政文件</text><text x="0" y="343" font-size="39" font-weight="540" fill="#e0e7ff">統一放入工作台</text></g>
<g transform="translate(80 910)"><text font-size="28" font-weight="650" fill="#c7d2fe">@eziteach</text><text y="52" font-size="27" font-weight="520" fill="#e0e7ff">eziteach.hk</text><text x="900" y="52" text-anchor="end" font-size="24" font-weight="650" fill="#cbd5e1">06 / 09</text></g>
</svg>