<svg xmlns="http://www.w3.org/2000/svg" width="512" height="512" viewBox="0 0 512 512" role="img" aria-label="EziTeach logo">
  <defs>
    <linearGradient id="bg" x1="0" y1="0" x2="1" y2="1">
      <stop offset="0" stop-color="#6366f1"/>
      <stop offset="0.5" stop-color="#2563eb"/>
      <stop offset="1" stop-color="#0d9488"/>
    </linearGradient>
    <clipPath id="round"><rect x="0" y="0" width="512" height="512" rx="112"/></clipPath>
    <filter id="soft" x="-25%" y="-25%" width="150%" height="150%">
      <feDropShadow dx="0" dy="7" stdDeviation="9" flood-color="#0b1220" flood-opacity="0.28"/>
    </filter>
  </defs>

  <g clip-path="url(#round)">
    <rect x="0" y="0" width="512" height="512" fill="url(#bg)"/>
    <ellipse cx="120" cy="80" rx="320" ry="220" fill="#ffffff" opacity="0.12"/>
    <circle cx="470" cy="470" r="200" fill="none" stroke="#ffffff" stroke-width="26" opacity="0.07"/>
  </g>

  <g fill="#ffffff" filter="url(#soft)">
    <rect x="104" y="156" width="42" height="216" rx="13"/>
    <rect x="104" y="156" width="122" height="42" rx="13"/>
    <rect x="104" y="244" width="94"  height="42" rx="13"/>
    <rect x="104" y="330" width="122" height="42" rx="13"/>
    <rect x="246" y="156" width="160" height="42" rx="13"/>
    <rect x="305" y="156" width="42"  height="216" rx="13"/>
  </g>

  <path d="M410 96 Q410 140 454 140 Q410 140 410 184 Q410 140 366 140 Q410 140 410 96 Z" fill="#facc15"/>
  <path d="M444 186 Q444 206 464 206 Q444 206 444 226 Q444 206 424 206 Q444 206 444 186 Z" fill="#ffffff" opacity="0.9"/>
</svg>
